<?xml version="1.0" standalone="no"?>
<!DOCTYPE svg PUBLIC "-//W3C//DTD SVG 20010904//EN"
 "http://www.w3.org/TR/2001/REC-SVG-20010904/DTD/svg10.dtd">
<svg version="1.0" xmlns="http://www.w3.org/2000/svg"
 width="512.000000pt" height="512.000000pt" viewBox="0 0 512.000000 512.000000"
 preserveAspectRatio="xMidYMid meet">
<metadata>
Created by potrace 1.11, written by Peter Selinger 2001-2013
</metadata>
<g transform="translate(0.000000,512.000000) scale(0.100000,-0.100000)"
fill="#000000" stroke="none">
<path d="M4008 4249 c-122 -8 -256 -28 -370 -56 l-68 -16 0 -187 0 -187 128
43 c204 69 374 89 514 60 85 -19 120 -37 155 -82 59 -78 35 -218 -46 -272 -64
-42 -126 -54 -308 -59 l-173 -6 0 -153 0 -154 103 0 c271 0 413 -48 477 -161
21 -37 25 -57 25 -124 0 -96 -25 -150 -93 -202 -72 -54 -166 -78 -312 -78
-155 1 -247 23 -407 100 l-113 54 0 -194 0 -194 78 -25 c158 -49 342 -76 527
-76 515 0 778 174 811 536 22 244 -113 445 -344 515 l-43 13 59 21 c32 12 74
31 93 43 57 35 127 114 156 177 26 56 28 69 28 185 0 122 -1 127 -33 193 -45
91 -116 159 -217 207 -98 47 -177 66 -320 80 -120 11 -134 11 -307 -1z"/>
<path d="M460 2490 l0 -1700 390 0 390 0 0 670 c0 369 3 670 8 669 4 0 279
-301 612 -669 l605 -669 488 0 c268 -1 487 1 487 4 0 3 -365 407 -810 897
l-810 892 48 51 c27 27 347 376 712 775 365 399 674 737 688 753 l26 27 -455
0 -454 0 -570 -622 -570 -623 -3 623 -2 622 -390 0 -390 0 0 -1700z"/>
</g>
</svg>
